<?xml version="1.0" encoding="iso-8859-1"?>
<!-- Generator: Adobe Illustrator 16.0.0, SVG Export Plug-In . SVG Version: 6.00 Build 0)  -->
<!DOCTYPE svg PUBLIC "-//W3C//DTD SVG 1.1//EN" "http://www.w3.org/Graphics/SVG/1.1/DTD/svg11.dtd">
<svg version="1.1" id="Layer_1" xmlns="http://www.w3.org/2000/svg" xmlns:xlink="http://www.w3.org/1999/xlink" x="0px" y="0px"
	 width="537px" height="144px" viewBox="0 0 537 144" style="enable-background:new 0 0 537 144;" xml:space="preserve">
<g>
	<defs>
		<rect id="SVGID_1_" x="-140" y="-236" width="792" height="612"/>
	</defs>
	<clipPath id="SVGID_2_">
		<use xlink:href="#SVGID_1_"  style="overflow:visible;"/>
	</clipPath>
	<path style="clip-path:url(#SVGID_2_);fill:#F7941E;" d="M413.848,108.726h-34.477V71.714c0-3.282-2.66-5.942-5.942-5.942
		c-3.281,0-5.942,2.66-5.942,5.942v37.012h-35.178c-0.032,0-0.059-0.027-0.059-0.06V20.671c0-10.029,8.351-18.109,18.479-17.662
		c9.542,0.421,16.881,8.666,16.881,18.217v13.475h9.225c20.409,0,37.013,16.603,37.013,37.012V108.726z"/>
	<path style="clip-path:url(#SVGID_2_);fill:#F7941E;" d="M505.302,71.714c0-20.409-16.604-37.012-37.012-37.012h-9.225V21.227
		c0-9.552-7.339-17.797-16.881-18.218c-10.129-0.446-18.48,7.633-18.48,17.663v87.994c0,0.032,0.027,0.06,0.06,0.06h35.178V71.714
		c0-3.282,2.66-5.942,5.942-5.942c3.281,0,5.942,2.66,5.942,5.942v37.012h34.476V71.714z"/>
	<path style="clip-path:url(#SVGID_2_);fill:#F7941E;" d="M279.975,71.714c0-3.282,2.66-5.942,5.942-5.942h36.3v-31.07H287.51
		c-20.408,0-37.01,16.603-37.01,37.012c0,20.408,16.604,37.012,37.012,37.012h34.705v-31.07h-36.3
		C282.635,77.655,279.975,74.995,279.975,71.714"/>
	<path style="clip-path:url(#SVGID_2_);fill:#F7941E;" d="M242.836,71.712c0-20.409-16.604-37.01-37.012-37.01
		c-20.408,0-37.012,16.603-37.012,37.012v37.012h31.07V71.714c0-3.282,2.661-5.942,5.942-5.942c3.282,0,5.942,2.66,5.942,5.942
		v37.012h31.07V71.712z"/>
	<path style="clip-path:url(#SVGID_2_);fill:#F7941E;" d="M129.225,34.702v37.012c0,3.281-2.66,5.941-5.942,5.941
		c-3.282,0-5.942-2.66-5.942-5.941V34.702h-31.07v37.013c0,20.409,16.603,37.011,37.012,37.011
		c20.408,0,37.012-16.604,37.012-37.012V34.702H129.225z"/>
	<path style="clip-path:url(#SVGID_2_);fill:#F7941E;" d="M41.314,34.702H4.302v31.07h37.012c3.282,0,5.942,2.66,5.942,5.942
		c0,3.281-2.66,5.941-5.942,5.941H4.302v45.001c0,9.551,7.338,17.796,16.88,18.217c10.13,0.446,18.481-7.633,18.481-17.662v-14.485
		h1.652c20.409,0,37.011-16.604,37.011-37.012C78.326,51.305,61.722,34.702,41.314,34.702"/>
	<path style="clip-path:url(#SVGID_2_);fill:#F7941E;" d="M523.94,108.726c-5.017-0.004-9.1-4.096-9.095-9.137
		c0.004-5.042,4.094-9.125,9.111-9.121c5.041,0.005,9.125,4.095,9.12,9.137C533.073,104.646,528.982,108.729,523.94,108.726
		 M523.956,92.083c-4.234-0.004-7.394,3.077-7.398,7.508c-0.004,4.454,3.15,7.517,7.385,7.52c4.258,0.004,7.395-3.053,7.397-7.507
		C531.345,95.174,528.214,92.087,523.956,92.083 M526.245,104.787l-2.272-3.526c-0.489-0.783-0.758-1.004-1.468-1.005l-0.005,4.528
		l-1.959-0.002l0.011-10.598l3.598,0.004c2.325,0.001,3.547,1.324,3.546,3.063c-0.001,1.591-1.054,2.52-2.62,2.763
		c0.391,0.294,0.757,0.759,1.246,1.494l2.175,3.281L526.245,104.787z M523.854,95.754l-1.347-0.001l-0.002,3.084l1.027,0.001
		c1.103,0.001,2.105-0.243,2.106-1.541C525.641,96.367,525.177,95.755,523.854,95.754"/>
</g>
</svg>
